# xmcd
#
# Track frame offsets:
#	150
#	22456
#	37504
#	82268
#	97279
#	119464
#	138337
#	163502
#	174212
#
# Disc length: 2506 seconds
#
# Revision: 0
# Processed by: cddbd v1.4PL0 Copyright (c) Steve Scherf et al.
# Submitted via: audiograbber 1.81.01
#
DISCID=7409c809
DTITLE=Scotty and the Soultones - Soultones Groove
DYEAR=2003
DGENRE=Blues
TTITLE0=Soultones Groove
TTITLE1=Baby Come Home
TTITLE2=Welfare Aint Funny
TTITLE3=Anytime You Need A Friend
TTITLE4=K-9 Blues
TTITLE5=For Her Love
TTITLE6=3 am
TTITLE7=The Phone Call
TTITLE8=Shes All Mine
EXTD=
EXTT0=
EXTT1=
EXTT2=
EXTT3=
EXTT4=
EXTT5=
EXTT6=
EXTT7=
EXTT8=
PLAYORDER=
